<?xml version="1.0" encoding="UTF-8"?>
<svg xmlns="http://www.w3.org/2000/svg" version="1.1" width="200" height="200" viewBox="0 0 200 200"><rect x="0" y="0" width="200" height="200" fill="#ffffff"/><g transform="scale(6.897)"><g transform="translate(0,0)"><path fill-rule="evenodd" d="M10 0L10 2L11 2L11 0ZM12 0L12 1L13 1L13 2L12 2L12 4L13 4L13 3L14 3L14 4L15 4L15 3L16 3L16 4L17 4L17 5L15 5L15 6L14 6L14 8L15 8L15 9L12 9L12 7L13 7L13 5L11 5L11 6L10 6L10 4L11 4L11 3L8 3L8 4L9 4L9 5L8 5L8 7L9 7L9 8L6 8L6 9L7 9L7 10L5 10L5 11L4 11L4 12L3 12L3 14L4 14L4 15L3 15L3 17L1 17L1 16L2 16L2 15L1 15L1 14L0 14L0 15L1 15L1 16L0 16L0 21L1 21L1 18L2 18L2 19L7 19L7 20L6 20L6 21L8 21L8 23L10 23L10 24L8 24L8 29L10 29L10 28L9 28L9 26L10 26L10 27L11 27L11 25L12 25L12 26L13 26L13 27L12 27L12 29L13 29L13 28L14 28L14 29L15 29L15 28L16 28L16 29L19 29L19 28L22 28L22 29L24 29L24 28L25 28L25 26L26 26L26 25L27 25L27 28L26 28L26 29L27 29L27 28L28 28L28 26L29 26L29 25L27 25L27 24L28 24L28 22L29 22L29 21L28 21L28 18L29 18L29 17L28 17L28 14L29 14L29 13L28 13L28 10L29 10L29 9L28 9L28 8L27 8L27 9L28 9L28 10L27 10L27 12L25 12L25 13L24 13L24 12L23 12L23 11L22 11L22 10L24 10L24 11L25 11L25 10L26 10L26 8L25 8L25 9L24 9L24 8L23 8L23 9L22 9L22 8L21 8L21 6L20 6L20 9L19 9L19 8L17 8L17 9L16 9L16 7L17 7L17 5L21 5L21 4L19 4L19 3L20 3L20 2L19 2L19 3L16 3L16 2L17 2L17 1L16 1L16 0L15 0L15 1L14 1L14 0ZM19 0L19 1L20 1L20 0ZM8 1L8 2L9 2L9 1ZM14 2L14 3L15 3L15 2ZM9 6L9 7L10 7L10 6ZM11 6L11 7L12 7L12 6ZM15 6L15 7L16 7L16 6ZM18 6L18 7L19 7L19 6ZM0 8L0 9L3 9L3 10L4 10L4 9L5 9L5 8ZM10 8L10 9L9 9L9 11L6 11L6 12L11 12L11 13L9 13L9 14L7 14L7 13L4 13L4 14L5 14L5 15L6 15L6 16L5 16L5 17L3 17L3 18L9 18L9 19L10 19L10 18L11 18L11 22L13 22L13 23L12 23L12 25L15 25L15 26L16 26L16 28L18 28L18 27L20 27L20 26L23 26L23 27L22 27L22 28L23 28L23 27L24 27L24 26L25 26L25 25L24 25L24 26L23 26L23 25L20 25L20 24L19 24L19 22L20 22L20 18L21 18L21 19L22 19L22 20L24 20L24 19L25 19L25 20L27 20L27 18L28 18L28 17L26 17L26 18L22 18L22 17L25 17L25 16L27 16L27 14L28 14L28 13L27 13L27 14L26 14L26 13L25 13L25 14L24 14L24 13L23 13L23 12L22 12L22 11L21 11L21 9L20 9L20 10L19 10L19 9L17 9L17 10L16 10L16 9L15 9L15 10L16 10L16 11L14 11L14 12L13 12L13 13L12 13L12 11L13 11L13 10L12 10L12 9L11 9L11 8ZM10 9L10 11L11 11L11 9ZM1 10L1 11L0 11L0 12L2 12L2 10ZM18 10L18 11L19 11L19 12L17 12L17 13L16 13L16 12L14 12L14 13L16 13L16 14L15 14L15 15L14 15L14 16L15 16L15 17L12 17L12 15L13 15L13 14L9 14L9 15L7 15L7 14L6 14L6 15L7 15L7 16L6 16L6 17L7 17L7 16L8 16L8 17L9 17L9 18L10 18L10 17L12 17L12 18L13 18L13 19L12 19L12 21L13 21L13 20L14 20L14 21L16 21L16 22L15 22L15 23L14 23L14 24L16 24L16 25L18 25L18 26L17 26L17 27L18 27L18 26L20 26L20 25L18 25L18 24L16 24L16 22L17 22L17 21L19 21L19 18L20 18L20 16L21 16L21 17L22 17L22 16L21 16L21 14L22 14L22 15L24 15L24 16L25 16L25 15L24 15L24 14L23 14L23 13L22 13L22 12L21 12L21 13L19 13L19 12L20 12L20 11L19 11L19 10ZM17 13L17 15L15 15L15 16L18 16L18 15L19 15L19 16L20 16L20 14L19 14L19 13ZM9 15L9 17L10 17L10 16L11 16L11 15ZM15 17L15 18L17 18L17 19L14 19L14 20L16 20L16 21L17 21L17 20L18 20L18 18L19 18L19 17ZM3 20L3 21L5 21L5 20ZM9 20L9 22L10 22L10 20ZM21 21L21 24L24 24L24 21ZM25 21L25 24L27 24L27 22L28 22L28 21L27 21L27 22L26 22L26 21ZM22 22L22 23L23 23L23 22ZM14 27L14 28L15 28L15 27ZM0 0L0 7L7 7L7 0ZM1 1L1 6L6 6L6 1ZM2 2L2 5L5 5L5 2ZM22 0L22 7L29 7L29 0ZM23 1L23 6L28 6L28 1ZM24 2L24 5L27 5L27 2ZM0 22L0 29L7 29L7 22ZM1 23L1 28L6 28L6 23ZM2 24L2 27L5 27L5 24Z" fill="#000000"/></g></g></svg>
