<?xml version="1.0" encoding="UTF-8"?>
<svg xmlns="http://www.w3.org/2000/svg" version="1.1" width="200" height="200" viewBox="0 0 200 200"><rect x="0" y="0" width="200" height="200" fill="#ffffff"/><g transform="scale(6.897)"><g transform="translate(0,0)"><path fill-rule="evenodd" d="M9 0L9 1L10 1L10 2L8 2L8 3L9 3L9 4L10 4L10 5L9 5L9 6L8 6L8 8L4 8L4 9L3 9L3 8L0 8L0 9L3 9L3 10L4 10L4 9L5 9L5 10L6 10L6 11L7 11L7 12L4 12L4 11L3 11L3 12L2 12L2 10L1 10L1 12L0 12L0 14L2 14L2 15L3 15L3 16L4 16L4 15L5 15L5 16L6 16L6 17L7 17L7 18L5 18L5 17L2 17L2 16L1 16L1 18L0 18L0 19L1 19L1 20L0 20L0 21L1 21L1 20L2 20L2 21L4 21L4 20L2 20L2 19L1 19L1 18L3 18L3 19L5 19L5 20L6 20L6 21L8 21L8 25L9 25L9 26L8 26L8 29L11 29L11 28L12 28L12 29L13 29L13 28L12 28L12 27L11 27L11 26L12 26L12 24L14 24L14 26L13 26L13 27L14 27L14 26L15 26L15 22L14 22L14 21L13 21L13 20L12 20L12 19L11 19L11 18L12 18L12 16L14 16L14 18L13 18L13 19L14 19L14 18L15 18L15 16L17 16L17 21L18 21L18 23L17 23L17 22L16 22L16 23L17 23L17 24L16 24L16 29L18 29L18 26L20 26L20 25L24 25L24 27L25 27L25 28L26 28L26 27L27 27L27 29L29 29L29 28L28 28L28 27L29 27L29 24L28 24L28 23L29 23L29 20L28 20L28 19L29 19L29 17L28 17L28 19L27 19L27 18L26 18L26 17L25 17L25 18L24 18L24 16L22 16L22 18L21 18L21 20L20 20L20 22L19 22L19 18L18 18L18 16L19 16L19 17L21 17L21 15L22 15L22 14L24 14L24 15L27 15L27 16L28 16L28 15L29 15L29 9L28 9L28 12L27 12L27 13L26 13L26 11L27 11L27 10L26 10L26 9L27 9L27 8L26 8L26 9L25 9L25 10L24 10L24 9L23 9L23 8L20 8L20 11L21 11L21 12L20 12L20 14L21 14L21 15L19 15L19 14L18 14L18 11L17 11L17 10L18 10L18 8L19 8L19 6L20 6L20 7L21 7L21 6L20 6L20 3L21 3L21 0L19 0L19 4L17 4L17 5L16 5L16 3L17 3L17 2L18 2L18 0L16 0L16 1L15 1L15 0L12 0L12 1L10 1L10 0ZM13 1L13 2L14 2L14 1ZM11 2L11 3L12 3L12 4L11 4L11 5L10 5L10 6L9 6L9 7L10 7L10 6L11 6L11 8L12 8L12 10L10 10L10 8L9 8L9 10L8 10L8 11L9 11L9 12L8 12L8 15L6 15L6 16L8 16L8 18L7 18L7 19L6 19L6 20L9 20L9 23L10 23L10 22L11 22L11 21L12 21L12 20L11 20L11 21L10 21L10 18L11 18L11 16L12 16L12 15L11 15L11 13L12 13L12 12L13 12L13 13L14 13L14 14L13 14L13 15L14 15L14 14L15 14L15 15L18 15L18 14L16 14L16 12L15 12L15 11L16 11L16 10L17 10L17 7L18 7L18 6L17 6L17 7L16 7L16 6L15 6L15 5L14 5L14 4L13 4L13 3L12 3L12 2ZM15 2L15 3L16 3L16 2ZM13 5L13 6L12 6L12 8L14 8L14 10L13 10L13 11L14 11L14 10L15 10L15 6L14 6L14 5ZM13 6L13 7L14 7L14 6ZM6 9L6 10L7 10L7 9ZM21 9L21 11L22 11L22 9ZM9 10L9 11L10 11L10 10ZM23 10L23 12L24 12L24 14L25 14L25 11L26 11L26 10L25 10L25 11L24 11L24 10ZM11 11L11 12L12 12L12 11ZM21 12L21 13L22 13L22 12ZM2 13L2 14L7 14L7 13ZM9 13L9 15L8 15L8 16L9 16L9 17L10 17L10 16L9 16L9 15L10 15L10 13ZM27 13L27 15L28 15L28 13ZM23 18L23 19L22 19L22 20L25 20L25 27L26 27L26 26L27 26L27 27L28 27L28 26L27 26L27 23L28 23L28 21L27 21L27 19L24 19L24 18ZM15 19L15 20L16 20L16 19ZM21 21L21 24L24 24L24 21ZM13 22L13 23L14 23L14 22ZM22 22L22 23L23 23L23 22ZM26 22L26 23L27 23L27 22ZM11 23L11 24L10 24L10 25L11 25L11 24L12 24L12 23ZM19 24L19 25L20 25L20 24ZM9 26L9 28L11 28L11 27L10 27L10 26ZM20 27L20 29L21 29L21 27ZM22 28L22 29L24 29L24 28ZM0 0L0 7L7 7L7 0ZM1 1L1 6L6 6L6 1ZM2 2L2 5L5 5L5 2ZM22 0L22 7L29 7L29 0ZM23 1L23 6L28 6L28 1ZM24 2L24 5L27 5L27 2ZM0 22L0 29L7 29L7 22ZM1 23L1 28L6 28L6 23ZM2 24L2 27L5 27L5 24Z" fill="#000000"/></g></g></svg>
