<?xml version="1.0" encoding="UTF-8"?>
<svg xmlns="http://www.w3.org/2000/svg" version="1.1" width="200" height="200" viewBox="0 0 200 200"><rect x="0" y="0" width="200" height="200" fill="#ffffff"/><g transform="scale(6.897)"><g transform="translate(0,0)"><path fill-rule="evenodd" d="M10 0L10 2L11 2L11 0ZM12 0L12 1L13 1L13 0ZM16 0L16 1L14 1L14 3L13 3L13 2L12 2L12 4L13 4L13 5L11 5L11 6L10 6L10 4L11 4L11 3L8 3L8 4L9 4L9 5L8 5L8 7L9 7L9 8L6 8L6 9L10 9L10 11L11 11L11 9L12 9L12 10L13 10L13 11L12 11L12 13L16 13L16 14L15 14L15 15L14 15L14 14L11 14L11 15L10 15L10 13L11 13L11 12L9 12L9 10L8 10L8 12L9 12L9 16L10 16L10 17L12 17L12 20L13 20L13 22L12 22L12 21L10 21L10 24L11 24L11 26L10 26L10 25L9 25L9 24L8 24L8 29L9 29L9 27L10 27L10 28L11 28L11 26L12 26L12 28L13 28L13 29L17 29L17 28L16 28L16 26L17 26L17 25L18 25L18 26L19 26L19 27L20 27L20 28L22 28L22 27L23 27L23 28L25 28L25 29L27 29L27 28L28 28L28 26L29 26L29 23L27 23L27 22L29 22L29 20L28 20L28 19L27 19L27 16L28 16L28 15L27 15L27 12L28 12L28 11L27 11L27 12L25 12L25 9L26 9L26 8L25 8L25 9L24 9L24 8L23 8L23 9L22 9L22 8L21 8L21 4L20 4L20 3L21 3L21 2L18 2L18 3L17 3L17 4L16 4L16 3L15 3L15 2L17 2L17 0ZM19 0L19 1L21 1L21 0ZM8 1L8 2L9 2L9 1ZM14 3L14 5L16 5L16 6L15 6L15 10L14 10L14 9L13 9L13 8L14 8L14 6L13 6L13 7L12 7L12 6L11 6L11 7L12 7L12 9L13 9L13 10L14 10L14 11L13 11L13 12L14 12L14 11L15 11L15 10L16 10L16 9L17 9L17 8L18 8L18 9L19 9L19 8L18 8L18 6L17 6L17 5L19 5L19 7L20 7L20 5L19 5L19 3L18 3L18 4L17 4L17 5L16 5L16 4L15 4L15 3ZM9 6L9 7L10 7L10 6ZM16 6L16 8L17 8L17 6ZM0 8L0 11L1 11L1 10L2 10L2 12L0 12L0 13L2 13L2 16L1 16L1 15L0 15L0 16L1 16L1 17L0 17L0 21L1 21L1 18L2 18L2 21L4 21L4 20L3 20L3 17L2 17L2 16L3 16L3 14L4 14L4 16L6 16L6 17L7 17L7 18L4 18L4 19L7 19L7 20L6 20L6 21L7 21L7 20L8 20L8 23L9 23L9 20L11 20L11 19L10 19L10 18L8 18L8 15L7 15L7 14L6 14L6 13L7 13L7 12L6 12L6 11L7 11L7 10L5 10L5 11L4 11L4 12L6 12L6 13L5 13L5 14L4 14L4 13L3 13L3 10L2 10L2 9L5 9L5 8ZM10 8L10 9L11 9L11 8ZM20 8L20 9L21 9L21 11L20 11L20 10L18 10L18 11L17 11L17 12L16 12L16 13L17 13L17 12L18 12L18 13L19 13L19 14L17 14L17 15L15 15L15 16L18 16L18 17L17 17L17 20L16 20L16 21L14 21L14 22L16 22L16 23L13 23L13 24L14 24L14 26L16 26L16 25L15 25L15 24L18 24L18 25L19 25L19 26L20 26L20 23L19 23L19 22L18 22L18 21L20 21L20 20L21 20L21 19L22 19L22 18L21 18L21 16L20 16L20 18L18 18L18 17L19 17L19 16L18 16L18 15L20 15L20 13L21 13L21 14L22 14L22 13L23 13L23 15L22 15L22 17L23 17L23 20L24 20L24 19L25 19L25 21L26 21L26 20L27 20L27 19L25 19L25 18L24 18L24 17L26 17L26 16L27 16L27 15L26 15L26 13L25 13L25 12L24 12L24 11L23 11L23 10L24 10L24 9L23 9L23 10L22 10L22 9L21 9L21 8ZM27 8L27 9L28 9L28 10L29 10L29 9L28 9L28 8ZM19 11L19 12L20 12L20 11ZM21 11L21 13L22 13L22 12L23 12L23 13L24 13L24 14L25 14L25 13L24 13L24 12L23 12L23 11ZM28 13L28 14L29 14L29 13ZM6 15L6 16L7 16L7 15ZM12 15L12 16L14 16L14 15ZM23 15L23 16L24 16L24 15ZM13 17L13 20L14 20L14 19L15 19L15 18L16 18L16 17ZM28 17L28 18L29 18L29 17ZM7 18L7 19L8 19L8 18ZM20 18L20 19L19 19L19 20L20 20L20 19L21 19L21 18ZM16 21L16 22L17 22L17 21ZM21 21L21 24L24 24L24 21ZM11 22L11 24L12 24L12 22ZM22 22L22 23L23 23L23 22ZM18 23L18 24L19 24L19 23ZM25 23L25 24L27 24L27 25L24 25L24 26L23 26L23 25L22 25L22 26L21 26L21 27L22 27L22 26L23 26L23 27L24 27L24 26L26 26L26 27L25 27L25 28L27 28L27 25L28 25L28 24L27 24L27 23ZM12 25L12 26L13 26L13 25ZM13 27L13 28L15 28L15 27ZM0 0L0 7L7 7L7 0ZM1 1L1 6L6 6L6 1ZM2 2L2 5L5 5L5 2ZM22 0L22 7L29 7L29 0ZM23 1L23 6L28 6L28 1ZM24 2L24 5L27 5L27 2ZM0 22L0 29L7 29L7 22ZM1 23L1 28L6 28L6 23ZM2 24L2 27L5 27L5 24Z" fill="#000000"/></g></g></svg>
